# This file uses centimeters as units for non-parametric coordinates.

g default
v 0.068429 0.000000 -0.022234
v 0.058209 0.000000 -0.042291
v 0.042291 0.000000 -0.058209
v 0.022234 0.000000 -0.068429
v 0.000000 0.000000 -0.071950
v -0.022234 0.000000 -0.068429
v -0.042291 0.000000 -0.058209
v -0.058209 0.000000 -0.042291
v -0.068429 0.000000 -0.022234
v -0.071950 0.000000 0.000000
v -0.068429 0.000000 0.022234
v -0.058209 0.000000 0.042291
v -0.042291 0.000000 0.058209
v -0.022234 0.000000 0.068429
v -0.000000 0.000000 0.071950
v 0.022234 0.000000 0.068429
v 0.042291 0.000000 0.058209
v 0.058209 0.000000 0.042291
v 0.068429 0.000000 0.022234
v 0.071950 0.000000 0.000000
v 0.068429 2.035940 -0.022234
v 0.058209 2.035940 -0.042291
v 0.042291 2.035940 -0.058209
v 0.022234 2.035940 -0.068429
v 0.000000 2.035940 -0.071950
v -0.022234 2.035940 -0.068429
v -0.042291 2.035940 -0.058209
v -0.058209 2.035940 -0.042291
v -0.068429 2.035940 -0.022234
v -0.071950 2.035940 0.000000
v -0.068429 2.035940 0.022234
v -0.058209 2.035940 0.042291
v -0.042291 2.035940 0.058209
v -0.022234 2.035940 0.068429
v -0.000000 2.035940 0.071950
v 0.022234 2.035940 0.068429
v 0.042291 2.035940 0.058209
v 0.058209 2.035940 0.042291
v 0.068429 2.035940 0.022234
v 0.071950 2.035940 0.000000
v 0.000000 0.000000 0.000000
v 0.000000 2.035940 0.000000
v 0.068429 0.582288 -0.022234
v 0.058209 0.582288 -0.042291
v 0.042291 0.582288 -0.058209
v 0.022234 0.582288 -0.068429
v 0.000000 0.582288 -0.071950
v -0.022234 0.582288 -0.068429
v -0.042291 0.582288 -0.058209
v -0.058209 0.582288 -0.042291
v -0.068429 0.582288 -0.022234
v -0.071950 0.582288 0.000000
v -0.068429 0.582288 0.022234
v -0.058209 0.582288 0.042291
v -0.042291 0.582288 0.058209
v -0.022234 0.582288 0.068429
v -0.000000 0.582288 0.071950
v 0.022234 0.582288 0.068429
v 0.042291 0.582288 0.058209
v 0.058209 0.582288 0.042291
v 0.068429 0.582288 0.022234
v 0.071950 0.582288 0.000000
v 0.068429 0.594035 -0.022234
v 0.071950 0.594035 0.000000
v 0.068429 0.594035 0.022234
v 0.058209 0.594035 0.042291
v 0.042291 0.594035 0.058209
v 0.022234 0.594035 0.068429
v -0.000000 0.594035 0.071950
v -0.022234 0.594035 0.068429
v -0.042291 0.594035 0.058209
v -0.058209 0.594035 0.042291
v -0.068429 0.594035 0.022234
v -0.071950 0.594035 0.000000
v -0.068429 0.594035 -0.022234
v -0.058209 0.594035 -0.042291
v -0.042291 0.594035 -0.058209
v -0.022234 0.594035 -0.068429
v 0.000000 0.594035 -0.071950
v 0.022234 0.594035 -0.068429
v 0.042291 0.594035 -0.058209
v 0.058209 0.594035 -0.042291
vt 0.346562 0.084608
vt 0.350040 0.073904
vt 0.350040 0.062649
vt 0.346561 0.051945
vt 0.339946 0.042839
vt 0.330840 0.036223
vt 0.320136 0.032745
vt 0.308881 0.032745
vt 0.298176 0.036223
vt 0.289071 0.042839
vt 0.282455 0.051945
vt 0.278977 0.062649
vt 0.278977 0.073904
vt 0.282455 0.084608
vt 0.289071 0.093714
vt 0.298176 0.100330
vt 0.308881 0.103808
vt 0.320136 0.103808
vt 0.330840 0.100330
vt 0.339946 0.093714
vt 0.000000 0.000025
vt 0.011255 0.000024
vt 0.022510 0.000023
vt 0.033766 0.000021
vt 0.045021 0.000020
vt 0.056276 0.000019
vt 0.067531 0.000018
vt 0.078786 0.000016
vt 0.090042 0.000015
vt 0.101297 0.000014
vt 0.112552 0.000012
vt 0.123807 0.000011
vt 0.135062 0.000010
vt 0.146318 0.000009
vt 0.157573 0.000007
vt 0.168828 0.000006
vt 0.180083 0.000005
vt 0.191338 0.000004
vt 0.202594 0.000002
vt 0.213849 0.000001
vt 0.225104 0.000000
vt 0.000110 1.000000
vt 0.011365 0.999999
vt 0.022620 0.999998
vt 0.033876 0.999996
vt 0.045131 0.999995
vt 0.056386 0.999994
vt 0.067641 0.999993
vt 0.078896 0.999991
vt 0.090152 0.999990
vt 0.101407 0.999989
vt 0.112662 0.999988
vt 0.123917 0.999986
vt 0.135172 0.999985
vt 0.146428 0.999984
vt 0.157683 0.999982
vt 0.168938 0.999981
vt 0.180193 0.999980
vt 0.191448 0.999979
vt 0.202703 0.999977
vt 0.213959 0.999976
vt 0.225214 0.999975
vt 0.464338 0.084608
vt 0.467816 0.073904
vt 0.467816 0.062649
vt 0.464338 0.051945
vt 0.457722 0.042839
vt 0.448617 0.036223
vt 0.437912 0.032745
vt 0.426657 0.032745
vt 0.415953 0.036223
vt 0.406847 0.042839
vt 0.400231 0.051945
vt 0.396753 0.062649
vt 0.396753 0.073904
vt 0.400231 0.084608
vt 0.406847 0.093714
vt 0.415953 0.100330
vt 0.426657 0.103808
vt 0.437912 0.103808
vt 0.448617 0.100330
vt 0.457722 0.093714
vt 0.314508 0.068277
vt 0.432285 0.068276
vt 0.225134 0.273167
vt 0.000030 0.273192
vt 0.011285 0.273191
vt 0.022540 0.273190
vt 0.033796 0.273188
vt 0.045051 0.273187
vt 0.056306 0.273186
vt 0.067561 0.273185
vt 0.078816 0.273183
vt 0.090072 0.273182
vt 0.101327 0.273181
vt 0.112582 0.273180
vt 0.123837 0.273178
vt 0.135092 0.273177
vt 0.146348 0.273176
vt 0.157603 0.273174
vt 0.168858 0.273173
vt 0.180113 0.273172
vt 0.191368 0.273171
vt 0.202624 0.273170
vt 0.213879 0.273168
vt 0.225135 0.279041
vt 0.000031 0.279065
vt 0.213879 0.279042
vt 0.202624 0.279043
vt 0.191369 0.279044
vt 0.180114 0.279045
vt 0.168859 0.279047
vt 0.157603 0.279048
vt 0.146348 0.279049
vt 0.135093 0.279050
vt 0.123838 0.279052
vt 0.112583 0.279053
vt 0.101327 0.279054
vt 0.090072 0.279056
vt 0.078817 0.279057
vt 0.067562 0.279058
vt 0.056307 0.279059
vt 0.045051 0.279061
vt 0.033796 0.279062
vt 0.022541 0.279063
vt 0.011286 0.279064
vn 0.951057 0.000000 -0.309016
vn 0.809017 0.000000 -0.587785
vn 0.809017 0.000000 -0.587785
vn 0.951057 0.000000 -0.309016
vn 0.587785 0.000000 -0.809017
vn 0.587785 0.000000 -0.809017
vn 0.309017 0.000000 -0.951057
vn 0.309017 0.000000 -0.951057
vn 0.000000 0.000000 -1.000000
vn 0.000000 0.000000 -1.000000
vn -0.309017 0.000000 -0.951057
vn -0.309017 0.000000 -0.951057
vn -0.587785 0.000000 -0.809017
vn -0.587785 0.000000 -0.809017
vn -0.809017 0.000000 -0.587785
vn -0.809017 0.000000 -0.587785
vn -0.951057 0.000000 -0.309016
vn -0.951057 0.000000 -0.309016
vn -1.000000 0.000000 0.000000
vn -1.000000 0.000000 0.000000
vn -0.951057 0.000000 0.309016
vn -0.951057 0.000000 0.309016
vn -0.809017 0.000000 0.587786
vn -0.809017 0.000000 0.587786
vn -0.587785 0.000000 0.809017
vn -0.587785 0.000000 0.809017
vn -0.309017 0.000000 0.951056
vn -0.309017 0.000000 0.951057
vn 0.000001 -0.000000 1.000000
vn 0.000001 -0.000000 1.000000
vn 0.309017 -0.000000 0.951057
vn 0.309017 -0.000000 0.951056
vn 0.587785 -0.000000 0.809018
vn 0.587785 -0.000000 0.809017
vn 0.809017 0.000000 0.587785
vn 0.809017 0.000000 0.587785
vn 0.951057 0.000000 0.309017
vn 0.951057 0.000000 0.309017
vn 1.000000 0.000000 0.000001
vn 1.000000 0.000000 0.000001
vn 0.000000 -1.000000 0.000000
vn 0.000000 -1.000000 0.000000
vn 0.000000 -1.000000 0.000000
vn 0.000000 -1.000000 0.000000
vn 0.000000 -1.000000 0.000000
vn 0.000000 -1.000000 0.000000
vn 0.000000 -1.000000 0.000000
vn 0.000000 -1.000000 0.000000
vn 0.000000 -1.000000 0.000000
vn 0.000000 -1.000000 0.000000
vn 0.000000 -1.000000 0.000000
vn 0.000000 -1.000000 0.000000
vn 0.000000 -1.000000 0.000000
vn 0.000000 -1.000000 0.000000
vn 0.000000 -1.000000 0.000000
vn 0.000000 -1.000000 0.000000
vn 0.000000 -1.000000 0.000000
vn 0.000000 -1.000000 0.000000
vn 0.000000 -1.000000 0.000000
vn 0.000000 -1.000000 0.000000
vn 0.000000 -1.000000 0.000000
vn 0.000000 1.000000 -0.000009
vn 0.000000 1.000000 0.000000
vn 0.000000 1.000000 -0.000001
vn 0.000000 1.000000 -0.000005
vn 0.000000 1.000000 -0.000005
vn 0.000000 1.000000 0.000000
vn 0.000000 1.000000 -0.000002
vn 0.000000 1.000000 0.000002
vn 0.000000 1.000000 0.000005
vn 0.000000 1.000000 -0.000009
vn 0.000000 1.000000 0.000000
vn 0.000000 1.000000 0.000009
vn 0.000000 1.000000 0.000000
vn 0.000000 1.000000 0.000005
vn 0.000000 1.000000 0.000005
vn 0.000000 1.000000 0.000000
vn 0.000000 1.000000 0.000003
vn 0.000000 1.000000 -0.000002
vn 0.000000 1.000000 -0.000005
vn 0.000000 1.000000 0.000000
vn 0.000000 1.000000 -0.000009
vn 0.951057 0.000000 -0.309016
vn 0.809017 0.000000 -0.587785
vn 0.587785 0.000000 -0.809017
vn 0.309017 0.000000 -0.951057
vn 0.000000 0.000000 -1.000000
vn -0.309017 0.000000 -0.951057
vn -0.587785 0.000000 -0.809017
vn -0.809017 0.000000 -0.587785
vn -0.951057 0.000000 -0.309016
vn -1.000000 0.000000 0.000000
vn -0.951057 0.000000 0.309016
vn -0.809017 0.000000 0.587786
vn -0.587785 0.000000 0.809017
vn -0.309017 0.000000 0.951057
vn 0.000001 0.000000 1.000000
vn 0.309017 0.000000 0.951057
vn 0.587785 0.000000 0.809017
vn 0.809017 0.000000 0.587785
vn 0.951057 0.000000 0.309017
vn 1.000000 0.000000 0.000001
vn 0.951057 0.000000 -0.309016
vn 1.000000 0.000000 0.000001
vn 0.951057 0.000000 0.309017
vn 0.809017 0.000000 0.587785
vn 0.587785 0.000000 0.809017
vn 0.309017 0.000000 0.951056
vn 0.000001 0.000000 1.000000
vn -0.309017 0.000000 0.951057
vn -0.587785 0.000000 0.809017
vn -0.809017 0.000000 0.587786
vn -0.951057 0.000000 0.309016
vn -1.000000 0.000000 0.000000
vn -0.951057 0.000000 -0.309016
vn -0.809017 0.000000 -0.587785
vn -0.587785 0.000000 -0.809017
vn -0.309017 0.000000 -0.951057
vn 0.000000 0.000000 -1.000000
vn 0.309017 0.000000 -0.951057
vn 0.587785 0.000000 -0.809017
vn 0.809017 0.000000 -0.587785
s 1
g pCylinder1
f 43/86/1 44/87/2 82/126/3 63/107/4
f 44/87/2 45/88/5 81/125/6 82/126/3
f 45/88/5 46/89/7 80/124/8 81/125/6
f 46/89/7 47/90/9 79/123/10 80/124/8
f 47/90/9 48/91/11 78/122/12 79/123/10
f 48/91/11 49/92/13 77/121/14 78/122/12
f 49/92/13 50/93/15 76/120/16 77/121/14
f 50/93/15 51/94/17 75/119/18 76/120/16
f 51/94/17 52/95/19 74/118/20 75/119/18
f 52/95/19 53/96/21 73/117/22 74/118/20
f 53/96/21 54/97/23 72/116/24 73/117/22
f 54/97/23 55/98/25 71/115/26 72/116/24
f 55/98/25 56/99/27 70/114/28 71/115/26
f 56/99/27 57/100/29 69/113/30 70/114/28
f 57/100/29 58/101/31 68/112/32 69/113/30
f 58/101/31 59/102/33 67/111/34 68/112/32
f 59/102/33 60/103/35 66/110/36 67/111/34
f 60/103/35 61/104/37 65/109/38 66/110/36
f 61/104/37 62/105/39 64/108/40 65/109/38
f 62/105/39 43/85/1 63/106/4 64/108/40
s 2
f 2/2/41 1/1/42 41/83/43
f 3/3/44 2/2/41 41/83/43
f 4/4/45 3/3/44 41/83/43
f 5/5/46 4/4/45 41/83/43
f 6/6/47 5/5/46 41/83/43
f 7/7/48 6/6/47 41/83/43
f 8/8/49 7/7/48 41/83/43
f 9/9/50 8/8/49 41/83/43
f 10/10/51 9/9/50 41/83/43
f 11/11/52 10/10/51 41/83/43
f 12/12/53 11/11/52 41/83/43
f 13/13/54 12/12/53 41/83/43
f 14/14/55 13/13/54 41/83/43
f 15/15/56 14/14/55 41/83/43
f 16/16/57 15/15/56 41/83/43
f 17/17/58 16/16/57 41/83/43
f 18/18/59 17/17/58 41/83/43
f 19/19/60 18/18/59 41/83/43
f 20/20/61 19/19/60 41/83/43
f 1/1/42 20/20/61 41/83/43
s 3
f 21/81/62 22/80/63 42/84/64
f 22/80/63 23/79/65 42/84/64
f 23/79/65 24/78/66 42/84/64
f 24/78/66 25/77/67 42/84/64
f 25/77/67 26/76/68 42/84/64
f 26/76/68 27/75/69 42/84/64
f 27/75/69 28/74/70 42/84/64
f 28/74/70 29/73/71 42/84/64
f 29/73/71 30/72/72 42/84/64
f 30/72/72 31/71/73 42/84/64
f 31/71/73 32/70/74 42/84/64
f 32/70/74 33/69/75 42/84/64
f 33/69/75 34/68/76 42/84/64
f 34/68/76 35/67/77 42/84/64
f 35/67/77 36/66/78 42/84/64
f 36/66/78 37/65/79 42/84/64
f 37/65/79 38/64/80 42/84/64
f 38/64/80 39/63/81 42/84/64
f 39/63/81 40/82/82 42/84/64
f 40/82/82 21/81/62 42/84/64
s 1
f 1/21/83 2/22/84 44/87/2 43/86/1
f 2/22/84 3/23/85 45/88/5 44/87/2
f 3/23/85 4/24/86 46/89/7 45/88/5
f 4/24/86 5/25/87 47/90/9 46/89/7
f 5/25/87 6/26/88 48/91/11 47/90/9
f 6/26/88 7/27/89 49/92/13 48/91/11
f 7/27/89 8/28/90 50/93/15 49/92/13
f 8/28/90 9/29/91 51/94/17 50/93/15
f 9/29/91 10/30/92 52/95/19 51/94/17
f 10/30/92 11/31/93 53/96/21 52/95/19
f 11/31/93 12/32/94 54/97/23 53/96/21
f 12/32/94 13/33/95 55/98/25 54/97/23
f 13/33/95 14/34/96 56/99/27 55/98/25
f 14/34/96 15/35/97 57/100/29 56/99/27
f 15/35/97 16/36/98 58/101/31 57/100/29
f 16/36/98 17/37/99 59/102/33 58/101/31
f 17/37/99 18/38/100 60/103/35 59/102/33
f 18/38/100 19/39/101 61/104/37 60/103/35
f 19/39/101 20/40/102 62/105/39 61/104/37
f 20/40/102 1/41/83 43/85/1 62/105/39
f 64/108/40 63/106/4 21/62/103 40/61/104
f 65/109/38 64/108/40 40/61/104 39/60/105
f 66/110/36 65/109/38 39/60/105 38/59/106
f 67/111/34 66/110/36 38/59/106 37/58/107
f 68/112/32 67/111/34 37/58/107 36/57/108
f 69/113/30 68/112/32 36/57/108 35/56/109
f 70/114/28 69/113/30 35/56/109 34/55/110
f 71/115/26 70/114/28 34/55/110 33/54/111
f 72/116/24 71/115/26 33/54/111 32/53/112
f 73/117/22 72/116/24 32/53/112 31/52/113
f 74/118/20 73/117/22 31/52/113 30/51/114
f 75/119/18 74/118/20 30/51/114 29/50/115
f 76/120/16 75/119/18 29/50/115 28/49/116
f 77/121/14 76/120/16 28/49/116 27/48/117
f 78/122/12 77/121/14 27/48/117 26/47/118
f 79/123/10 78/122/12 26/47/118 25/46/119
f 80/124/8 79/123/10 25/46/119 24/45/120
f 81/125/6 80/124/8 24/45/120 23/44/121
f 82/126/3 81/125/6 23/44/121 22/43/122
f 63/107/4 82/126/3 22/43/122 21/42/103
